<svg width="24" height="25" viewBox="0 0 24 25" fill="none" xmlns="http://www.w3.org/2000/svg">
<path d="M12.0004 14.1326C12.9472 14.1326 13.7147 13.3651 13.7147 12.4183C13.7147 11.4716 12.9472 10.704 12.0004 10.704C11.0536 10.704 10.2861 11.4716 10.2861 12.4183C10.2861 13.3651 11.0536 14.1326 12.0004 14.1326Z" stroke="currentColor" stroke-width="2.05714" stroke-miterlimit="10" stroke-linecap="square"/>
<path d="M4.28557 14.1326C5.23235 14.1326 5.99986 13.3651 5.99986 12.4183C5.99986 11.4716 5.23235 10.704 4.28557 10.704C3.3388 10.704 2.57129 11.4716 2.57129 12.4183C2.57129 13.3651 3.3388 14.1326 4.28557 14.1326Z" stroke="currentColor" stroke-width="2.05714" stroke-miterlimit="10" stroke-linecap="square"/>
<path d="M19.7143 14.1326C20.6611 14.1326 21.4286 13.3651 21.4286 12.4183C21.4286 11.4716 20.6611 10.704 19.7143 10.704C18.7675 10.704 18 11.4716 18 12.4183C18 13.3651 18.7675 14.1326 19.7143 14.1326Z" stroke="currentColor" stroke-width="2.05714" stroke-miterlimit="10" stroke-linecap="square"/>
</svg>
